<svg width="140" height="96" viewBox="0 0 140 96" fill="none" xmlns="http://www.w3.org/2000/svg">
<g id="material-symbols-light:image-outline">
<path id="Vector" d="M32.7542 93.6673C30.0709 93.6673 27.8309 92.769 26.0342 90.9723C24.2337 89.1718 23.3334 86.9298 23.3334 84.2465V9.75482C23.3334 7.07148 24.2337 4.83148 26.0342 3.03482C27.8309 1.23426 30.0709 0.333984 32.7542 0.333984H107.246C109.929 0.333984 112.169 1.23426 113.966 3.03482C115.766 4.83148 116.667 7.07148 116.667 9.75482V84.2465C116.667 86.9298 115.768 89.1698 113.972 90.9665C112.171 92.767 109.929 93.6673 107.246 93.6673H32.7542ZM32.7542 87.834H107.246C108.14 87.834 108.963 87.4607 109.713 86.714C110.46 85.9634 110.833 85.1409 110.833 84.2465V9.75482C110.833 8.86037 110.46 8.03787 109.713 7.28732C108.963 6.54065 108.14 6.16732 107.246 6.16732H32.7542C31.8598 6.16732 31.0373 6.54065 30.2867 7.28732C29.54 8.03787 29.1667 8.86037 29.1667 9.75482V84.2465C29.1667 85.1409 29.54 85.9634 30.2867 86.714C31.0373 87.4607 31.8598 87.834 32.7542 87.834ZM43.75 73.2507H97.1484L80.6575 51.259L65.4034 70.5557L55.195 58.2182L43.75 73.2507Z" fill="#E0E0E0"/>
</g>
</svg>
